{
  "accessors": [
    {
      "bufferView": 2,
      "componentType": 5126,
      "count": 6470,
      "max": [
        2.434605121612549,
        0.34683945775032043,
        0.16190390288829803
      ],
      "min": [
        -1.6633996963500977,
        -0.4312194585800171,
        -0.10034842044115067
      ],
      "type": "VEC3"
    },
    {
      "bufferView": 2,
      "byteOffset": 77640,
      "componentType": 5126,
      "count": 6470,
      "max": [
        1.0,
        1.0,
        1.0
      ],
      "min": [
        -1.0,
        -1.0,
        -1.0
      ],
      "type": "VEC3"
    },
    {
      "bufferView": 1,
      "componentType": 5126,
      "count": 6470,
      "max": [
        0.9858886003494263,
        0.9953795671463013
      ],
      "min": [
        0.004620455205440521,
        0.004620388150215149
      ],
      "type": "VEC2"
    },
    {
      "bufferView": 1,
      "byteOffset": 51760,
      "componentType": 5126,
      "count": 6470,
      "max": [
        0.9858886003494263,
        0.9953795671463013
      ],
      "min": [
        0.004620455205440521,
        0.004620388150215149
      ],
      "type": "VEC2"
    },
    {
      "bufferView": 0,
      "componentType": 5125,
      "count": 10404,
      "type": "SCALAR"
    }
  ],
  "asset": {
    "extras": {
      "author": "Zuhaib Khoso (https://sketchfab.com/zuhaibkhoso)",
      "license": "SKETCHFAB Standard (https://sketchfab.com/licenses)",
      "source": "https://sketchfab.com/3d-models/low-poly-stylized-sniper-gun-f122f26db82841399f5db24e10246596",
      "title": "Low Poly Stylized Sniper Gun"
    },
    "generator": "Sketchfab-16.45.0",
    "version": "2.0"
  },
  "bufferViews": [
    {
      "buffer": 0,
      "byteLength": 41616,
      "name": "floatBufferViews",
      "target": 34963
    },
    {
      "buffer": 0,
      "byteLength": 103520,
      "byteOffset": 41616,
      "byteStride": 8,
      "name": "floatBufferViews",
      "target": 34962
    },
    {
      "buffer": 0,
      "byteLength": 155280,
      "byteOffset": 145136,
      "byteStride": 12,
      "name": "floatBufferViews",
      "target": 34962
    }
  ],
  "buffers": [
    {
      "byteLength": 300416,
      "uri": "scene.bin"
    }
  ],
  "images": [
    {
      "uri": "textures/Base_baseColor.png"
    },
    {
      "uri": "textures/Base_metallicRoughness.png"
    }
  ],
  "materials": [
    {
      "doubleSided": true,
      "name": "Base",
      "pbrMetallicRoughness": {
        "baseColorTexture": {
          "index": 0
        },
        "metallicRoughnessTexture": {
          "index": 1
        }
      }
    }
  ],
  "meshes": [
    {
      "name": "Sniper_Base_0",
      "primitives": [
        {
          "attributes": {
            "NORMAL": 1,
            "POSITION": 0,
            "TEXCOORD_0": 2,
            "TEXCOORD_1": 3
          },
          "indices": 4,
          "material": 0,
          "mode": 4
        }
      ]
    }
  ],
  "nodes": [
    {
      "children": [
        1
      ],
      "matrix": [
        1.0,
        0.0,
        0.0,
        0.0,
        0.0,
        2.220446049250313e-16,
        -1.0,
        0.0,
        0.0,
        1.0,
        2.220446049250313e-16,
        0.0,
        0.0,
        0.0,
        0.0,
        1.0
      ],
      "name": "Sketchfab_model"
    },
    {
      "children": [
        2
      ],
      "matrix": [
        0.009999999776482582,
        0.0,
        0.0,
        0.0,
        0.0,
        0.0,
        0.009999999776482582,
        0.0,
        0.0,
        -0.009999999776482582,
        0.0,
        0.0,
        0.0,
        0.0,
        0.0,
        1.0
      ],
      "name": "95c7e6a9b6d84048a1c9625089f0ffec.fbx"
    },
    {
      "children": [
        3
      ],
      "name": "RootNode"
    },
    {
      "children": [
        4
      ],
      "matrix": [
        51.6568489074707,
        0.0,
        0.0,
        0.0,
        0.0,
        51.65684890747065,
        2.2579925802638054e-06,
        0.0,
        0.0,
        -2.2579925802638054e-06,
        51.65684890747065,
        0.0,
        -4.407399046613136e-06,
        -1.0718887097027618e-05,
        0.0654708594083786,
        1.0
      ],
      "name": "Sniper"
    },
    {
      "mesh": 0,
      "name": "Sniper_Base_0"
    }
  ],
  "samplers": [
    {
      "magFilter": 9729,
      "minFilter": 9987,
      "wrapS": 10497,
      "wrapT": 10497
    }
  ],
  "scene": 0,
  "scenes": [
    {
      "name": "Sketchfab_Scene",
      "nodes": [
        0
      ]
    }
  ],
  "textures": [
    {
      "sampler": 0,
      "source": 0
    },
    {
      "sampler": 0,
      "source": 1
    }
  ]
}
